<svg width="30" height="30" viewBox="0 0 30 30" fill="none" xmlns="http://www.w3.org/2000/svg">
<path d="M15 1.25C12.2805 1.25 9.62209 2.05642 7.36091 3.56729C5.09974 5.07816 3.33737 7.22562 2.29666 9.7381C1.25596 12.2506 0.983662 15.0153 1.51421 17.6825C2.04476 20.3497 3.35432 22.7997 5.27729 24.7227C7.20026 26.6457 9.65027 27.9552 12.3175 28.4858C14.9848 29.0163 17.7494 28.744 20.2619 27.7033C22.7744 26.6626 24.9218 24.9003 26.4327 22.6391C27.9436 20.3779 28.75 17.7195 28.75 15C28.75 11.3533 27.3013 7.85591 24.7227 5.27728C22.1441 2.69866 18.6467 1.25 15 1.25ZM22.5 16.25H10.5175L13.3838 19.1163C13.5031 19.2316 13.5984 19.3695 13.6639 19.522C13.7294 19.6745 13.7639 19.8385 13.7653 20.0045C13.7668 20.1705 13.7351 20.3351 13.6723 20.4887C13.6094 20.6423 13.5166 20.7819 13.3992 20.8992C13.2819 21.0166 13.1423 21.1094 12.9887 21.1723C12.8351 21.2351 12.6705 21.2668 12.5045 21.2653C12.3385 21.2639 12.1745 21.2294 12.022 21.1639C11.8695 21.0984 11.7316 21.0031 11.6163 20.8838L6.61626 15.8837C6.38192 15.6493 6.25027 15.3315 6.25027 15C6.25027 14.6685 6.38192 14.3507 6.61626 14.1163L11.6163 9.11625C11.7316 8.99686 11.8695 8.90163 12.022 8.83612C12.1745 8.77061 12.3385 8.73613 12.5045 8.73469C12.6705 8.73324 12.8351 8.76487 12.9887 8.82772C13.1423 8.89057 13.2819 8.98339 13.3992 9.10076C13.5166 9.21812 13.6094 9.35769 13.6723 9.51131C13.7351 9.66493 13.7668 9.82953 13.7653 9.9955C13.7639 10.1615 13.7294 10.3255 13.6639 10.478C13.5984 10.6305 13.5031 10.7684 13.3838 10.8837L10.5175 13.75H22.5C22.8315 13.75 23.1495 13.8817 23.3839 14.1161C23.6183 14.3505 23.75 14.6685 23.75 15C23.75 15.3315 23.6183 15.6495 23.3839 15.8839C23.1495 16.1183 22.8315 16.25 22.5 16.25Z" fill="white"/>
</svg>
