<svg width="26" height="26" viewBox="0 0 26 26" fill="none" xmlns="http://www.w3.org/2000/svg">
<path d="M13 25.5C6.125 25.5 0.5 19.875 0.5 13C0.5 7.12499 4.75 1.87499 10.5 0.749994C11 0.624994 11.625 0.874994 11.875 1.37499C12.125 1.87499 12 2.49999 11.625 2.87499C10.125 4.37499 9.25 6.49999 9.25 8.62499C9.25 13.125 12.875 16.75 17.375 16.75C19.5 16.75 21.625 15.875 23.125 14.375C23.5 14 24.125 13.875 24.625 14.125C25.125 14.375 25.375 14.875 25.25 15.5C24.125 21.25 18.875 25.5 13 25.5ZM7.5 4.62499C4.75 6.49999 3 9.49999 3 13C3 18.5 7.5 23 13 23C16.5 23 19.5 21.25 21.375 18.5C20.125 19 18.75 19.25 17.375 19.25C11.5 19.25 6.75 14.5 6.75 8.62499C6.75 7.24999 7 5.87499 7.5 4.62499Z" fill="black"/>
</svg>
