<svg width="30" height="30" viewBox="0 0 30 30" fill="none" xmlns="http://www.w3.org/2000/svg">
<path d="M15 6.75C13.3683 6.75 11.7733 7.23385 10.4165 8.14037C9.05984 9.04689 8.00242 10.3354 7.37799 11.8429C6.75357 13.3503 6.59019 15.0091 6.90852 16.6095C7.22685 18.2098 8.01259 19.6798 9.16637 20.8336C10.3202 21.9874 11.7902 22.7731 13.3905 23.0915C14.9908 23.4098 16.6496 23.2464 18.1571 22.622C19.6646 21.9976 20.9531 20.9402 21.8596 19.5835C22.7661 18.2267 23.25 16.6317 23.25 15C23.2532 13.9157 23.0419 12.8415 22.6285 11.8391C22.215 10.8367 21.6074 9.92602 20.8407 9.1593C20.074 8.39259 19.1632 7.78502 18.1609 7.37154C17.1585 6.95806 16.0843 6.74683 15 6.75ZM15 20.25C13.9616 20.25 12.9466 19.9421 12.0833 19.3652C11.2199 18.7883 10.547 17.9684 10.1496 17.0091C9.75227 16.0498 9.6483 14.9942 9.85088 13.9758C10.0535 12.9574 10.5535 12.0219 11.2877 11.2877C12.0219 10.5535 12.9574 10.0534 13.9758 9.85087C14.9942 9.6483 16.0498 9.75227 17.0091 10.1496C17.9684 10.547 18.7883 11.2199 19.3652 12.0833C19.9421 12.9466 20.25 13.9616 20.25 15C20.2544 15.6907 20.1216 16.3753 19.8593 17.0143C19.597 17.6532 19.2105 18.2337 18.7221 18.7221C18.2337 19.2105 17.6532 19.597 17.0143 19.8593C16.3753 20.1216 15.6907 20.2544 15 20.25ZM8.25 6.3C8.34144 6.47456 8.46841 6.62804 8.62275 6.75056C8.77709 6.87308 8.95537 6.96193 9.14612 7.01138C9.33687 7.06084 9.53587 7.0698 9.73029 7.0377C9.92472 7.0056 10.1103 6.93314 10.275 6.825C10.4496 6.73356 10.603 6.60659 10.7256 6.45225C10.8481 6.29791 10.9369 6.11963 10.9864 5.92887C11.0358 5.73812 11.0448 5.53913 11.0127 5.3447C10.9806 5.15028 10.9081 4.96473 10.8 4.8L10.2 3.825C10.1086 3.65044 9.98159 3.49695 9.82725 3.37443C9.67291 3.25191 9.49463 3.16306 9.30388 3.11361C9.11313 3.06415 8.91413 3.05519 8.71971 3.08729C8.52528 3.11939 8.33973 3.19185 8.175 3.3C8.01235 3.40329 7.87168 3.53765 7.76101 3.69537C7.65035 3.85309 7.57187 4.03109 7.53007 4.21918C7.48828 4.40727 7.48398 4.60175 7.51743 4.7915C7.55088 4.98125 7.62141 5.16254 7.725 5.325L8.25 6.3ZM21.75 23.7C21.5511 23.3618 21.226 23.1166 20.8462 23.0181C20.4665 22.9196 20.0632 22.9761 19.725 23.175C19.3869 23.3739 19.1416 23.699 19.0431 24.0788C18.9447 24.4585 19.0011 24.8618 19.2 25.2L19.8 26.175C19.8914 26.3496 20.0184 26.503 20.1727 26.6256C20.3271 26.7481 20.5054 26.8369 20.6961 26.8864C20.8869 26.9358 21.0859 26.9448 21.2803 26.9127C21.4747 26.8806 21.6603 26.8081 21.825 26.7C22.575 26.25 22.8 25.35 22.35 24.675L21.75 23.7ZM4.125 13.5H3C2.60218 13.5 2.22064 13.658 1.93934 13.9393C1.65804 14.2206 1.5 14.6022 1.5 15C1.5 15.3978 1.65804 15.7794 1.93934 16.0607C2.22064 16.342 2.60218 16.5 3 16.5H4.125C4.52282 16.5 4.90436 16.342 5.18566 16.0607C5.46696 15.7794 5.625 15.3978 5.625 15C5.625 14.6022 5.46696 14.2206 5.18566 13.9393C4.90436 13.658 4.52282 13.5 4.125 13.5ZM27 13.5H25.875C25.4772 13.5 25.0956 13.658 24.8143 13.9393C24.533 14.2206 24.375 14.6022 24.375 15C24.375 15.3978 24.533 15.7794 24.8143 16.0607C25.0956 16.342 25.4772 16.5 25.875 16.5H27C27.3978 16.5 27.7794 16.342 28.0607 16.0607C28.342 15.7794 28.5 15.3978 28.5 15C28.5 14.6022 28.342 14.2206 28.0607 13.9393C27.7794 13.658 27.3978 13.5 27 13.5ZM10.35 23.1C10.1835 22.998 9.99817 22.9306 9.80506 22.9018C9.61194 22.8731 9.41501 22.8835 9.22601 22.9325C9.03701 22.9815 8.85983 23.068 8.70502 23.187C8.55022 23.306 8.42097 23.455 8.325 23.625L7.725 24.6C7.62302 24.7665 7.55562 24.9518 7.52684 25.1449C7.49806 25.3381 7.50847 25.535 7.55747 25.724C7.60647 25.913 7.69305 26.0902 7.81203 26.245C7.93102 26.3998 8.07997 26.529 8.25 26.625C9 27 9.9 26.775 10.275 26.1L10.875 25.125C11.0539 24.7824 11.0992 24.3856 11.0022 24.0115C10.9052 23.6373 10.6728 23.3125 10.35 23.1ZM19.725 6.9C19.8915 7.00198 20.0768 7.06938 20.2699 7.09816C20.4631 7.12694 20.66 7.11652 20.849 7.06752C21.038 7.01852 21.2152 6.93195 21.37 6.81296C21.5248 6.69398 21.654 6.54503 21.75 6.375L22.35 5.4C22.5386 5.03984 22.5815 4.62096 22.4698 4.23006C22.3581 3.83915 22.1004 3.50616 21.75 3.3C21 2.925 20.1 3.15 19.725 3.825L19.125 4.8C18.9364 5.16015 18.8935 5.57903 19.0052 5.96994C19.1169 6.36084 19.3746 6.69383 19.725 6.9Z" fill="white"/>
</svg>
